<?xml version="1.0" encoding="utf-8"?>
<!-- Generator: Adobe Illustrator 16.0.4, SVG Export Plug-In . SVG Version: 6.00 Build 0)  -->
<!DOCTYPE svg PUBLIC "-//W3C//DTD SVG 1.1//EN" "http://www.w3.org/Graphics/SVG/1.1/DTD/svg11.dtd">
<svg version="1.1" id="Layer_1" xmlns="http://www.w3.org/2000/svg" xmlns:xlink="http://www.w3.org/1999/xlink" x="0px" y="0px"
	 width="612px" height="792px" viewBox="0 0 612 792" enable-background="new 0 0 612 792" xml:space="preserve">
<path fill-rule="evenodd" clip-rule="evenodd" fill="none" d="M338,100c17.297,14.298,43.14,26.781,54,47
	c17.86,33.25,0.678,98.532,6,141c4.087,32.618,1.206,78.763-1,106c1,12.332,2,24.668,3,37c-1,27.664-2,55.336-3,83
	c-1.333,0-2.667,0-4,0c-15.451-15.43-40.693-24.798-50-46c-8.554-19.487-11.098-86.564-7-117c0.667-58.661,1.333-117.339,2-176
	C335.112,153.342,331.897,121.68,338,100z"/>
<path fill-rule="evenodd" clip-rule="evenodd" fill="none" d="M534,100c8.777,9.711,0.362,82.192,2,101
	c2.229,25.592-4.729,55.72-1,84c4.115,31.208,3.201,69.717,0,103c-2.275,23.659,8.164,54.075-2,76c-11.266,24.303-37.8,32.9-54,52
	c-1-0.667-2-1.333-3-2c-0.333-40.663-0.667-81.337-1-122c0-16.998,0-34.002,0-51c0-20.331,0-40.669,0-61c0-38.33,0-76.67,0-115
	c6.728-27.389,25.667-34.941,42-52C520.55,109.292,534.333,100.584,534,100z"/>
<path fill-rule="evenodd" clip-rule="evenodd" fill="none" d="M274,102c1.333,0.667,2.667,1.333,4,2
	c-0.333,80.659-0.667,161.341-1,242c-5.348,37.958,8.093,87.388-4,120c-7.423,20.018-35.01,35.682-51,48
	c-1.333-0.333-2.667-0.667-4-1c-4.807-25.196-0.422-54.992-1-83c-1-61.994-2-124.006-3-186c-2.514-31.632-4.128-77.007,8-99
	C231.619,127.557,258.1,113.811,274,102z"/>
<path fill-rule="evenodd" clip-rule="evenodd" fill="none" d="M78,103c1.667,0.333,3.333,0.667,5,1
	c12.954,6.087,46.942,36.117,53,49c7.93,16.864,3.001,57.386,3,83c0,53.661,0,107.339,0,161c-3.824,24.499,5.905,109.437-4,117
	c-17.363-7.365-46.103-30.124-54-47c-5.052-10.797-6.81-28.407-5-42c0.333-73.326,0.667-146.674,1-220
	C79.667,172.164,69.239,129.801,78,103z"/>
<path fill-rule="evenodd" clip-rule="evenodd" fill="none" d="M465,698c-1.014-25.458-3.793-66.031,8-85
	c32.577-52.4,106.026-58.167,125-127c7.645-27.735,3.001-69.994,3-105c0-72.993,0-146.007,0-219c2.417-19.451-2.807-40.276,1-59
	c1.333,0,2.667,0,4,0c0.333,0,0.667,0,1,0c14.722,22.508,44.737,31.275,53,61c0.333,33.997,0.667,68.003,1,102
	c0,64.327,0,128.673,0,193c-3.003,32.834,1.412,66.182-14,92c-17.898,29.982-79.282,72.259-109,94
	C521.405,657.141,485.202,695.114,465,698z"/>
<path fill-rule="evenodd" clip-rule="evenodd" fill="none" d="M7,104c3.827,1.321,2.08-0.001,4,3c6.738,9.338-1.81,91.116,1,114
	c0.333,63.66,0.667,127.34,1,191c-0.843,18.678-1.238,49.879,3,71c14.652,73.014,92.675,77.609,125,128
	c13.646,21.272,10.411,56.311,10,87c-0.667,0.333-1.333,0.667-2,1c-48.378-26.762-88.278-68.823-131-102
	c-20.439-15.873-45.149-31.846-56-57c-14.055-32.582-15.209-156.818-9-202c0-25.664,0-51.336,0-77c3.635-37.988-7.753-78.828,3-105
	C-34.504,132.888-7.249,122.907,7,104z"/>
<path fill-rule="evenodd" clip-rule="evenodd" fill="none" d="M306,540c1.667,0.333,3.333,0.667,5,1c11.822,5.117,21.01,16.86,31,24
	c27.795,19.865,54.221,35.621,61,71c3.012,15.717,1.45,58.994-4,62c-29.997-24.998-60.003-50.002-90-75c-1.333,0-2.667,0-4,0
	c-29.997,24.998-60.003,50.002-90,75c-0.667-0.333-1.333-0.667-2-1c0-23.331,0-46.669,0-70C217.625,597.109,282.213,555.679,306,540
	z"/>
</svg>
