<?xml version="1.0" encoding="utf-8"?>
<!-- Generator: Adobe Illustrator 16.0.4, SVG Export Plug-In . SVG Version: 6.00 Build 0)  -->
<!DOCTYPE svg PUBLIC "-//W3C//DTD SVG 1.1//EN" "http://www.w3.org/Graphics/SVG/1.1/DTD/svg11.dtd">
<svg version="1.1" id="Layer_1" xmlns="http://www.w3.org/2000/svg" xmlns:xlink="http://www.w3.org/1999/xlink" x="0px" y="0px"
	 width="1104px" height="774px" viewBox="0 0 1104 774" enable-background="new 0 0 1104 774" xml:space="preserve">
<path fill-rule="evenodd" clip-rule="evenodd" d="M573.959,265.032c17.541-0.19,50.16-3.818,63.992,4
	c30.473,17.224,16.92,47.823-9.999,58.993c1,1,2,2,2.999,3c6.827,17.85,21.714,36.692,33.996,49.994
	c-9.324,0.123-20.334,0.825-25.997-3c-12.664-19.995-25.331-39.997-37.995-59.992c7.618,2.412,21.355,1.024,25.997-3
	c11.922-5.624,8.033-23.771,2-31.996c-8.721-2.879-21.348-3.14-33.996-3c2.857,24.843-5.674,84.13,4.999,100.988
	c-8.665,0-17.332,0-25.996,0C580.802,366.38,581.841,279.027,573.959,265.032z"/>
<path fill-rule="evenodd" clip-rule="evenodd" d="M568.959,381.018c-7.771-12.843-35.942-101.349-31.996-115.986h-36.995
	c4.137,16.618-7.437,33.468-9.999,48.994h-51.993c-2,5.332-4,10.666-6,15.998c17.663-0.333,35.331-0.667,52.994-1
	c-3.333,11.997-6.666,23.998-9.999,35.996h-47.994v-83.99c15.475-0.189,36.161-1.771,46.994,3c-0.333-6.332-0.667-12.666-1-18.998
	h-67.992c7.698,14.296,7.034,103.359-1,115.986h84.99c4.332-17.33,8.666-34.664,12.998-51.994h32.996
	c2.285,15.079,15.688,37.72,8.999,51.994H568.959z M505.967,315.025c3.666-13.997,7.333-27.998,10.999-41.995h3
	c3.333,13.997,6.666,27.998,9.999,41.995H505.967z"/>
<path fill-rule="evenodd" clip-rule="evenodd" d="M368.984,321.025v-1c22.155-8.876,38.024-36.464,10.999-50.994
	c-14.229-7.649-46.376-4.715-66.992-4c6.096,18.479,6.983,99.924-1,115.986c26.084,0.79,65.005,3.45,76.99-12.999
	C403.115,348.622,390.243,322.607,368.984,321.025z M371.984,359.02c-9.112,5.76-21.887,6.491-37.996,6v-84.99
	c12.671-0.135,25.167,0.136,33.996,3c4.97,6.998,6.694,12.765,4,22.997c-6.834,5.602-14.261,6.535-27.997,5.999l-4,15.998
	c11.296-0.937,25.642-1.814,30.996,6C377.114,340.204,374.676,351.511,371.984,359.02z"/>
<path fill-rule="evenodd" clip-rule="evenodd" d="M248.999,512.001c0.333-7.332,0.667-14.666,1-21.997
	c9.479,13.86,47.596,11.401,52.993-3.999c0.333-2.666,0.667-5.333,1-7.999c-11.095-20.057-46.98-14.358-54.993-36.996
	c-2.655-7.502-0.258-16.873,2-21.997c11.247-25.531,37.218-15.211,64.992-18.998c-0.333,6.999-0.667,14-1,20.997
	c-10.546-6.736-37.368-10.118-44.995,2c-1,3-2,6-3,8.999c12.808,17.243,45.526,13.81,53.994,34.996
	C341.068,517.244,283.123,514.74,248.999,512.001z"/>
<path fill-rule="evenodd" clip-rule="evenodd" d="M319.99,399.015c26.661,0,53.33,0,79.99,0c-0.333,6.666-0.667,13.333-1,19.998
	c-4.467-5.818-19.68-4.436-29.997-3.999c-0.339,24.464-5.134,86.218,5,99.987c-9.331,0-18.665,0-27.997,0
	c12.193-18.757,5.246-71.816,5-99.987c-11.194-0.341-23.969-0.624-30.996,2.999C319.99,411.681,319.99,405.348,319.99,399.015z"/>
<path fill-rule="evenodd" clip-rule="evenodd" d="M595.956,414.014c-0.271,26.593-5.524,81.434,3,100.987
	c-8.332,0-16.666,0-24.997,0c6.978-14.984,7.916-98.469,1-114.986c24.276-0.793,54.369-4.189,68.99,7
	c13.347,10.213,12.628,40.764-1,49.993c-4.998,1.666-9.998,3.333-14.997,4.999c1,1,2,2,2.999,3
	c4.4,13.102,21.835,43.273,33.996,48.994c0,0.333,0,0.666,0,1c-37.058,0.436-51.225-38.869-63.992-62.993
	c14.188,0.914,22.335,0.121,30.996-5.998c3.678-11.291,2.935-20.473-2.999-28.997C620.374,414.445,608.436,413.889,595.956,414.014z
	"/>
<path fill-rule="evenodd" clip-rule="evenodd" d="M695.943,399.015c1.333,0,2.667,0,4,0c4.15,29.699,32.274,58.05,40.994,89.989
	c0.667,0,1.334,0,2,0c-3.146-21.791,3.23-70.741-6.999-88.989c7.998,0,15.999,0,23.997,0c-9.309,20.291-5.592,88.034-3,114.986
	c-6.998,0-13.999,0-20.997,0c-15.33-32.326-30.665-64.662-45.995-96.988c-0.333,0-0.666,0-0.999,0
	c3.07,26.432-4.713,75.207,5.999,96.988c-8.332-0.334-16.666-0.667-24.997-1c6.64-4.427,6.204-102.604,2-113.986
	C679.944,399.682,687.944,399.349,695.943,399.015z"/>
<path fill-rule="evenodd" clip-rule="evenodd" d="M839.926,401.015c0,6.999,0,13.999,0,20.997
	c-11.285-7.015-27.828-8.013-42.995-3.999c-3.495,4.611-6.046,6.325-6.999,13.998c12.488,16.761,45.504,13.845,53.993,33.996
	c21.536,51.125-38.111,48.608-71.991,45.994c0-6.999,0-13.999,0-20.998c18.295,8.429,41.859,11.25,54.993-3.999
	c0.281-10.396-2.051-13.478-5.999-18.998c-25.426-4.404-73.585-29.096-40.995-59.991
	C792.661,395.947,818.938,399.791,839.926,401.015z"/>
<path fill-rule="evenodd" clip-rule="evenodd" d="M568.959,515.001c-8.889-15.052-32.862-94.683-32.996-114.986h-34.996
	c-0.603,19.27-8.375,30.921-10.999,47.994h-52.993c-1.667,5.332-3.333,10.666-5,15.998c17.663-0.333,35.331-0.667,52.994-1v1
	c-3.333,10.998-6.666,21.999-9.999,32.996v1.999h-47.994v-83.988c14.269-0.161,34.042-1.937,44.994,1.999h1v-16.998h-66.992
	c6.445,16.556,6.262,102.461-2,114.986h84.99c4.332-17.329,8.666-34.665,12.998-51.994h32.996
	c2.181,15.288,15.652,37.768,8.999,51.994H568.959z M529.964,449.009h-22.997c3.333-13.997,6.666-27.998,9.999-41.994h3
	c3.333,12.996,6.666,25.997,9.999,38.995V449.009z"/>
</svg>
