<?xml version="1.0" encoding="utf-8"?>
<!-- Generator: Adobe Illustrator 16.0.4, SVG Export Plug-In . SVG Version: 6.00 Build 0)  -->
<!DOCTYPE svg PUBLIC "-//W3C//DTD SVG 1.1//EN" "http://www.w3.org/Graphics/SVG/1.1/DTD/svg11.dtd">
<svg version="1.1" id="Layer_1" xmlns="http://www.w3.org/2000/svg" xmlns:xlink="http://www.w3.org/1999/xlink" x="0px" y="0px"
	 width="550.473px" height="307.484px" viewBox="0 0 550.473 307.484" enable-background="new 0 0 550.473 307.484"
	 xml:space="preserve">
<rect x="6.328" y="6.312" fill-rule="evenodd" clip-rule="evenodd" fill="#223770" width="539.973" height="295.485"/>
<path fill-rule="evenodd" clip-rule="evenodd" fill="#FFFFFF" d="M129.354,51.51c0.691,0,1.383,0,2.074,0
	c8.537,12.639,11.818,31.104,17.632,45.981c11.639,31.458,23.28,62.925,34.918,94.384c5.421,13.701,8.992,28.854,16.249,41.141
	c1.877,3.178,4.54,6.995,7.606,8.989c2.6,1.69,8.024,1.875,9.681,4.494c2.223,2.538,1.537,8.724-1.383,10.026
	c-4.712,2.101-13.564,0.409-18.324-0.346c-8.527,0.115-17.057,0.23-25.583,0.346c-5.07,0.23-10.142,0.461-15.212,0.691
	c-2.238-0.739-4.057-4.535-2.766-7.605c0.461-0.691,0.922-1.384,1.383-2.075c25.096-0.673,8.968-32.194,4.495-43.562
	c-2.228-5.661-2.965-14.443-8.989-16.249c-14.865-0.115-29.734-0.23-44.599-0.346c-6.406,0-13.046-0.427-16.595,2.42
	c-5.354,4.297-7.035,17.021-9.68,23.855c-2.284,5.901-8.347,14.731-5.877,23.163c2.66,9.084,13.696,6.563,16.595,12.102
	c1.553,2.772-0.049,5.438-1.383,7.26c-3.71,0.973-48.792-0.506-50.13-1.383c-0.694-2.273-0.907-3.125-0.346-5.531
	c3.837-2.761,9.174-4.279,12.101-7.952c10.424-13.085,15.551-32.911,22.126-49.438c12.214-30.998,24.433-62.004,36.647-93.001
	C115.808,84.266,120.691,63.479,129.354,51.51z"/>
<path fill-rule="evenodd" clip-rule="evenodd" fill="#FFFFFF" d="M487.181,56.35c4.284-0.042,5.669,1.342,7.952,3.112
	c0.106,12.115,4.287,34.408-0.346,42.87c-1.498,0.23-2.997,0.461-4.495,0.692c-5.275-2.836-5.914-9.207-9.334-13.829
	c-5.758-7.782-15.785-14.007-26.967-16.25c-14.146-2.837-27.859,2.907-36.992,6.915c-34.061,14.948-61.083,69.624-40.104,118.239
	c9.565,22.166,29.093,40.899,53.933,47.71c15.178,4.161,35.622,2.797,45.291-5.186c7.606-6.28,8.174-42.586,4.148-55.662
	c-1.402-4.554-4.207-8.816-7.951-11.063c-6.815-4.088-21.041-0.267-27.312-3.803c-0.783-2.943-0.748-5.4,0.691-7.605
	c13.881-4.705,38.234-0.078,53.933-2.421c6.019-0.897,15.271-0.996,18.669,1.384c0.346,1.152,0.691,2.304,1.037,3.457
	c-1.452,3.424-3.303,2.964-6.223,4.84c-3.867,2.485-6.133,10.395-7.261,15.558c-2.989,13.698-0.692,32.345-0.691,47.364
	c0.001,5.473,1.157,14.556-2.073,16.941c-8.49,6.265-21.774,8.08-33.882,10.371c-60.097,11.372-108.132-19.947-121.35-62.23
	c-3.562-11.391-6.583-28.932-4.149-43.907c1.19-7.321,0.558-13.797,2.42-20.052c11.546-38.765,38.119-62.047,78.48-72.257
	c9.68-2.449,24.267-2.545,34.918-0.691c5.074,0.883,14.853,3.136,20.744,1.037C482.571,60.038,484.876,58.193,487.181,56.35z"/>
<path fill-rule="evenodd" clip-rule="evenodd" fill="#FFFFFF" d="M238.258,59.461c10.708,1.474,24.092,1.037,36.301,1.037
	c5.876,0,11.755,0,17.632,0c6.684-0.23,13.368-0.461,20.052-0.691c1.938,0.857,2.66,2.143,2.767,4.84
	c-5.393,7.63-21.131,3.314-25.238,12.446c-3.737,8.307-2.421,27.943-2.421,39.413c0,27.541,0,55.089,0,82.629
	c0,12.631-2.209,32.537,3.112,40.795c4.849,7.526,14.666,6.266,24.892,8.645c1.057,1.327,2.715,2.853,1.729,5.185
	c-1.879,3.702-11.681,3.321-17.632,2.421c-21.624-3.273-43.438,5.056-63.614,0.691c-1.29-2.374-1.005-4.086,0.346-6.223
	c8.316-2.219,18.746-2.896,22.818-9.335c5.168-8.172,2.057-22.929,3.803-34.228c0.115-29.614,0.23-59.237,0.346-88.851
	c0-10.714,2.092-31.514-1.383-39.413c-5.339-12.139-22.429-6.016-25.93-11.409c-1.77-1.819-1.295-5.766,0.691-6.915
	C237.105,60.153,237.682,59.807,238.258,59.461z"/>
<path fill-rule="evenodd" clip-rule="evenodd" fill="#223770" d="M123.823,108.208c-3.67,3.855-4.997,9.938-7.26,15.212
	c-4.609,10.486-9.22,20.976-13.829,31.461c-1.606,3.729-6.832,11.893-5.186,16.249c0.691,0.691,1.383,1.383,2.075,2.074
	c6.638,1.8,44.323,1.484,48.401-1.037c-0.097-7.55-4.819-15.217-7.26-21.435c-5.36-13.656-8.194-29.972-15.558-42.179
	C124.745,108.439,124.284,108.324,123.823,108.208z"/>
</svg>
