<?xml version="1.0" encoding="utf-8"?>
<!-- Generator: Adobe Illustrator 16.0.4, SVG Export Plug-In . SVG Version: 6.00 Build 0)  -->
<!DOCTYPE svg PUBLIC "-//W3C//DTD SVG 1.1//EN" "http://www.w3.org/Graphics/SVG/1.1/DTD/svg11.dtd">
<svg version="1.1" id="Layer_1" xmlns="http://www.w3.org/2000/svg" xmlns:xlink="http://www.w3.org/1999/xlink" x="0px" y="0px"
	 width="612px" height="792px" viewBox="0 0 612 792" enable-background="new 0 0 612 792" xml:space="preserve">
<path fill-rule="evenodd" clip-rule="evenodd" fill="none" d="M66.491,273.532c20.615-0.716,52.763-3.65,66.992,4
	c27.025,14.53,11.156,42.117-10.999,50.994c0,0.333,0,0.667,0,1c21.259,1.582,34.131,27.597,19.998,46.994
	c-11.985,16.449-50.906,13.788-76.99,12.999C73.474,373.456,72.587,292.01,66.491,273.532z"/>
<path fill-rule="evenodd" clip-rule="evenodd" fill="none" d="M226.471,273.532c0.333,6.332,0.667,12.666,1,18.998
	c-10.833-4.771-31.519-3.188-46.994-3c0,27.994,0,55.996,0,83.99c15.996,0,31.998,0,47.994,0
	c3.333-11.998,6.667-23.999,9.999-35.996c-17.663,0.333-35.331,0.667-52.994,1c2-5.333,4-10.666,6-15.998
	c17.329,0,34.664,0,51.993,0c2.562-15.526,14.136-32.376,9.999-48.994c12.331,0,24.665,0,36.995,0
	c-3.946,14.637,24.225,103.143,31.996,115.986c-8.331,0-16.665,0-24.997,0c6.688-14.273-6.714-36.915-8.999-51.994
	c-10.998,0-21.999,0-32.996,0c-4.332,17.33-8.666,34.664-12.998,51.994c-28.327,0-56.663,0-84.99,0
	c8.034-12.626,8.698-101.689,1-115.986C181.141,273.532,203.81,273.532,226.471,273.532z"/>
<path fill-rule="evenodd" clip-rule="evenodd" fill="none" d="M327.458,273.532c17.542-0.19,50.161-3.818,63.992,4
	c30.474,17.224,16.921,47.823-9.999,58.993c1,1,2,2,3,3c6.827,17.85,21.714,36.692,33.996,49.994
	c-9.324,0.123-20.334,0.825-25.997-3c-12.664-19.995-25.331-39.997-37.995-59.992c7.618,2.412,21.355,1.024,25.997-3
	c11.922-5.624,8.033-23.771,2-31.996c-8.72-2.879-21.347-3.14-33.996-3c2.857,24.843-5.674,84.13,4.999,100.988
	c-8.665,0-17.332,0-25.997,0C334.301,374.88,335.341,287.527,327.458,273.532z"/>
<path fill-rule="evenodd" clip-rule="evenodd" fill="none" d="M270.466,281.531c-3.666,13.997-7.333,27.998-10.999,41.995
	c7.999,0,15.999,0,23.997,0c-3.333-13.997-6.666-27.998-9.999-41.995C272.465,281.531,271.465,281.531,270.466,281.531z"/>
<path fill-rule="evenodd" clip-rule="evenodd" fill="none" d="M87.488,288.53c0,28.327,0,56.663,0,84.99
	c16.109,0.492,28.883-0.24,37.996-6c2.692-7.509,5.13-18.816-1-24.997c-5.354-7.813-19.7-6.937-30.996-6
	c1.333-5.332,2.667-10.666,4-15.998c13.736,0.536,21.163-0.397,27.997-5.999c2.695-10.232,0.97-16-4-22.997
	C112.655,288.666,100.16,288.395,87.488,288.53z"/>
<path fill-rule="evenodd" clip-rule="evenodd" fill="none" d="M2.499,520.501c0.333-7.332,0.667-14.666,1-21.997
	c9.479,13.861,47.596,11.401,52.993-4c0.333-2.666,0.667-5.333,1-7.999c-11.094-20.056-46.98-14.357-54.993-36.996
	c-2.655-7.501-0.258-16.873,2-21.997c11.248-25.531,37.218-15.211,64.992-18.998c-0.333,6.998-0.667,13.999-1,20.997
	c-10.546-6.737-37.367-10.119-44.994,2c-1,3-2,6-3,8.999c12.807,17.243,45.526,13.809,53.993,34.996
	C94.568,525.744,36.623,523.24,2.499,520.501z"/>
<path fill-rule="evenodd" clip-rule="evenodd" fill="none" d="M73.49,407.515c26.661,0,53.33,0,79.99,0
	c-0.333,6.665-0.667,13.333-1,19.998c-4.467-5.818-19.68-4.435-29.997-4c-0.339,24.464-5.134,86.218,5,99.987
	c-9.331,0-18.665,0-27.997,0c12.193-18.756,5.246-71.816,5-99.987c-11.194-0.34-23.969-0.624-30.996,3
	C73.49,420.181,73.49,413.847,73.49,407.515z"/>
<path fill-rule="evenodd" clip-rule="evenodd" fill="none" d="M349.456,422.513c-0.27,26.594-5.524,81.434,3,100.987
	c-8.332,0-16.666,0-24.997,0c6.978-14.984,7.917-98.468,1-114.985c24.277-0.793,54.37-4.19,68.991,6.999
	c13.346,10.213,12.627,40.764-1,49.994c-4.999,1.667-9.999,3.333-14.998,5c1,1,2,2,3,3c4.4,13.102,21.835,43.273,33.996,48.994
	c0,0.333,0,0.667,0,1c-37.058,0.436-51.225-38.869-63.992-62.992c14.188,0.913,22.335,0.121,30.996-5.999
	c3.678-11.29,2.935-20.472-3-28.997C373.875,422.946,361.936,422.389,349.456,422.513z"/>
<path fill-rule="evenodd" clip-rule="evenodd" fill="none" d="M449.443,407.515c1.333,0,2.667,0,4,0
	c4.151,29.698,32.275,58.049,40.995,89.989c0.667,0,1.333,0,2,0c-3.146-21.792,3.23-70.741-7-88.989c7.999,0,15.999,0,23.997,0
	c-9.309,20.29-5.592,88.034-3,114.985c-6.999,0-13.999,0-20.998,0c-15.33-32.326-30.664-64.662-45.994-96.988c-0.333,0-0.667,0-1,0
	c3.07,26.432-4.713,75.208,5.999,96.988c-8.332-0.333-16.666-0.667-24.997-1c6.64-4.427,6.205-102.604,2-113.986
	C433.444,408.182,441.445,407.849,449.443,407.515z"/>
<path fill-rule="evenodd" clip-rule="evenodd" fill="none" d="M593.425,409.515c0,6.998,0,13.999,0,20.997
	c-11.285-7.015-27.827-8.013-42.995-4c-3.495,4.611-6.046,6.325-6.999,13.999c12.489,16.76,45.504,13.844,53.993,33.996
	c21.536,51.125-38.111,48.609-71.991,45.994c0-6.999,0-13.999,0-20.998c18.295,8.428,41.859,11.25,54.993-4
	c0.281-10.396-2.051-13.478-5.999-18.998c-25.425-4.405-73.585-29.097-40.995-59.992
	C546.161,404.447,572.438,408.291,593.425,409.515z"/>
<path fill-rule="evenodd" clip-rule="evenodd" fill="none" d="M226.471,408.515c0,5.665,0,11.333,0,16.998c-0.333,0-0.667,0-1,0
	c-10.953-3.935-30.725-2.16-44.994-2c0,27.994,0,55.996,0,83.989c15.996,0,31.998,0,47.994,0c0-0.667,0-1.333,0-2
	c3.333-10.998,6.667-21.999,9.999-32.996c0-0.333,0-0.667,0-1c-17.663,0.333-35.331,0.667-52.994,1
	c1.667-5.332,3.333-10.666,5-15.998c17.663,0,35.331,0,52.993,0c2.624-17.073,10.396-28.725,10.999-47.994
	c11.664,0,23.332,0,34.996,0c0.134,20.303,24.107,99.934,32.996,114.985c-8.331,0-16.665,0-24.997,0
	c6.653-14.226-6.818-36.706-8.999-51.993c-10.998,0-21.999,0-32.996,0c-4.332,17.329-8.666,34.664-12.998,51.993
	c-28.327,0-56.663,0-84.99,0c8.262-12.525,8.445-98.43,2-114.985C181.808,408.515,204.143,408.515,226.471,408.515z"/>
<path fill-rule="evenodd" clip-rule="evenodd" fill="none" d="M270.466,415.514c-3.333,13.997-6.667,27.998-9.999,41.995
	c7.665,0,15.333,0,22.997,0c0-1,0-2,0-3c-3.333-12.997-6.666-25.998-9.999-38.995C272.465,415.514,271.465,415.514,270.466,415.514z
	"/>
</svg>
