<?xml version="1.0" encoding="utf-8"?>
<!-- Generator: Adobe Illustrator 16.0.4, SVG Export Plug-In . SVG Version: 6.00 Build 0)  -->
<!DOCTYPE svg PUBLIC "-//W3C//DTD SVG 1.1//EN" "http://www.w3.org/Graphics/SVG/1.1/DTD/svg11.dtd">
<svg version="1.1" id="Layer_1" xmlns="http://www.w3.org/2000/svg" xmlns:xlink="http://www.w3.org/1999/xlink" x="0px" y="0px"
	 width="282px" height="96px" viewBox="0 0 282 96" enable-background="new 0 0 282 96" xml:space="preserve">
<g>
	<path d="M43.056,26.436l-0.021-0.395l0.004,2.435h16.533c0.084-0.476,0.084-0.679,0.084-0.976c0-0.179,0.016-0.656-0.135-1.056
		L43.056,26.436z"/>
	<path d="M55.974,36c0.646-0.577,1.221-1.249,1.716-2H43.047l0.003,2H55.974z"/>
	<path d="M58.732,32c0.254-0.636,0.455-1.304,0.599-2h-16.29l0.003,2H58.732z"/>
	<path d="M59.296,24.856c-0.118-0.583-0.321-1.252-0.577-1.888H43.03l0.003,1.888H59.296z"/>
	<path d="M55.938,18.969H43.024l0.003,2h14.642C57.17,20.217,56.588,19.545,55.938,18.969z"/>
	<polygon points="26.038,53.038 28.05,53.038 28.062,32.859 26.038,34.875 	"/>
	<polygon points="29.986,53.038 31.999,53.038 32,28.938 29.986,30.922 	"/>
	<polygon points="33.688,53.031 35.672,53.031 35.681,25.266 33.668,27.281 	"/>
	<polygon points="37.515,53.038 39.527,53.038 39.528,21.422 37.516,23.422 	"/>
	<polygon points="43.014,25.645 43.035,26.041 43.033,24.856 43.014,24.856 43.015,22.969 43.03,22.969 43.027,20.969 
		43.015,20.969 43.016,18.969 42,18.984 40.996,19.984 40.996,53.038 43.008,53.038 43.012,34 43.047,34 43.044,32 43.013,32 
		43.013,30 43.041,30 43.039,28.476 43.014,28.476 	"/>
	<path d="M79.814,43.648c0,0,4.198-2.257,2.718-6.746c-1.438-4.36-6.576-3.907-6.576-3.907L63.969,33.02v0.97
		c0,0,3.009-0.169,3.009,1.02v15.02c0,0-0.087,1.966-2.985,1.966v0.995h9.973V52.02c0,0-2.96-0.082-2.96-1.966
		c0-0.478,0-2.995,0-5.838C76.206,45.63,79.814,43.648,79.814,43.648z M71.006,41.974c0-3.582,0-6.989,0-6.989
		s0.097-0.995,0.995-0.995s3.009,0,3.009,0s2.901,0.268,2.985,4.004c0.073,3.252-1.675,4.902-3.616,4.999
		c-0.461,0.023-1.407,0-1.407,0s-1.175,0.071-1.966-0.461C71.006,42.346,71.006,42.16,71.006,41.974z"/>
	<path d="M93.708,51.013L87.911,37.04l-0.465-0.009l-7.165,14.109c0,0-0.578,0.859-2.269,0.869v0.959h6.863V52
		c-4.016,0-3.047-1.109-3.047-1.109l1.828-3.896h5.34L90.609,51c0,0,0.812,0.984-2.609,0.984l0.005,1.011h7.967V52.01
		C94.48,52.01,93.708,51.013,93.708,51.013z M84.146,45.952L86,42h0.984l1.592,3.952H84.146z"/>
	<path d="M173.086,51.013l-5.797-13.973l-0.465-0.009l-7.164,14.109c0,0-0.578,0.859-2.27,0.869v0.959h6.863V52
		c-4.016,0-3.047-1.109-3.047-1.109l1.828-3.896h5.34L169.988,51c0,0,0.812,0.984-2.609,0.984l0.004,1.011h7.968V52.01
		C173.858,52.01,173.086,51.013,173.086,51.013z M163.523,45.952L165.379,42h0.984l1.592,3.952H163.523z"/>
	<path d="M234.541,52.969h6.863V52c-4.016,0-3.047-1.109-3.047-1.109l1.828-3.896h5.34L247.139,51c0,0,0.812,0.984-2.609,0.984
		l0.004,1.011h7.968V52.01c-1.492,0-2.265-0.997-2.265-0.997l-5.797-13.973l-0.465-0.009l-7.164,14.109c0,0-0.578,0.859-2.27,0.869
		V52.969z M242.529,42h0.984l1.592,3.952h-4.432L242.529,42z"/>
	<path d="M227.104,72.185l-4.894-12.23l-0.393-0.008l-6.049,12.351c0,0-0.49,0.752-1.917,0.761v0.84h5.797v-0.849
		c-3.394,0-2.574-0.972-2.574-0.972l1.542-3.409h4.511l1.359,3.506c0,0,0.687,0.861-2.201,0.861l0.004,0.885h6.727v-0.862
		C227.756,73.058,227.104,72.185,227.104,72.185z M219.029,67.756l1.568-3.46h0.83l1.343,3.46H219.029z"/>
	<path d="M109.695,40.104c-0.392-3.304-5.046-3.084-5.046-3.084h-0.642v1.04c0,0,2.458,0.767,2.424,2.79
		c-0.057,3.34-3.465,3.294-3.465,3.294l0.003,1.369l5.023,7.49h3.981l-5.542-7.825C106.431,45.177,110.121,43.695,109.695,40.104z"
		/>
	<path d="M100.995,49.836c0,0-0.01-2.036-0.017-4.327h0.966v-1.366h-0.97c-0.004-2.246-0.008-4.59,0.014-5.063
		c0.045-0.968,1.808-1.113,1.808-1.113V37.02h-6.366v1.021c0,0,2.061-0.15,2.071,1.042l-0.003,10.773c0,0,0.139,2.022-2.135,2.114
		v1.054h6.583l0.028-1.036C100.995,51.987,100.995,49.836,100.995,49.836z"/>
	<path d="M128.18,50.901c-1.493-1.162-7.609-7.102-7.609-7.102l0.282-0.347c1.183-1.231,3.279-3.477,4.11-4.341
		c1.177-1.224,3.044-1.07,3.044-1.07V36.94h-6.002v1.101c0,0,1.834-0.167,0.657,1.21l-3.831,4.112h-1.359v-3.609
		c0,0,0.028-1.713,1.953-1.713v-1.04h-6.741v1.04c0,0,1.916-0.184,1.916,1.744v10.063c0,0,0.029,2.111-1.953,2.111v1.042h6.836
		V51.96c0,0-1.954-0.094-1.996-2.097s-0.014-4.328-0.014-4.328l0.995-0.004l5.52,5.327c0,0,0.976,1.102-1.981,1.102v1.039
		l8.506-0.015v-1.039C130.511,51.945,129.673,52.063,128.18,50.901z"/>
	<path d="M265.143,72.089c-1.446-1.011-7.374-6.184-7.374-6.184l0.272-0.302c1.147-1.072,3.179-3.027,3.984-3.78
		c1.142-1.065,2.95-0.932,2.95-0.932v-0.958h-5.817v0.958c0,0,1.777-0.145,0.637,1.054l-3.713,3.581h-1.318v-3.144
		c0,0,0.027-1.491,1.894-1.491v-0.905h-6.535v0.905c0,0,1.856-0.159,1.856,1.519v8.762c0,0,0.029,1.838-1.893,1.838v0.908h6.626
		V73.01c0,0-1.892-0.081-1.936-1.825c-0.04-1.744-0.013-3.768-0.013-3.768l0.966-0.004l5.35,4.638c0,0,0.945,0.959-1.921,0.959
		v0.904l8.245-0.012v-0.905C267.403,72.997,266.591,73.102,265.143,72.089z"/>
	<path d="M158.965,31.964h-7.98v1.027c0,0,3.013,0.028,3.013,1.712s0,11.988,0,11.988l-13.03-14.699l-7.003-0.028v1.056
		c0,0,3.013,0.229,3.013,2.169v14.728c0,0-0.543,1.998-3.013,1.998V53h7.823v-1.057c0,0-2.774-0.328-2.774-2.084
		c0-1.341,0-13.7,0-13.7l14.984,16.869h1.981V34.761c0,0,0.137-1.77,2.986-1.77V31.964z"/>
	<path d="M222.955,52.192c0,0-2.099-0.251-2.099-1.586c0-1.021,0-10.429,0-10.429l11.333,12.839h1.5V39.112
		c0,0,0.104-1.346,2.259-1.346v-0.782h-6.036v0.782c0,0,2.277,0.021,2.277,1.303s0,9.125,0,9.125l-9.855-11.188l-5.298-0.022v0.804
		c0,0,2.279,0.174,2.279,1.65v11.209c0,0-0.411,1.522-2.279,1.522v0.826h5.919V52.192z"/>
	<path d="M242.918,60.67c0,0,1.939,0.019,1.939,1.137c0,1.119,0,7.961,0,7.961l-8.393-9.762l-4.512-0.019v0.701
		c0,0,1.941,0.152,1.941,1.439v9.782c0,0-0.351,1.326-1.941,1.326v0.721h5.04v-0.701c0,0-1.787-0.218-1.787-1.384
		c0-0.892,0-9.098,0-9.098l9.651,11.201h1.277V61.845c0,0,0.088-1.175,1.924-1.175v-0.683h-5.141V60.67z"/>
	<path d="M188.754,37.014l-0.284,0.625h-11.448c0,0-0.966,0.058-1.008-0.625h-1.037l-1.619,4.318h0.994c0,0,0.966-2.329,2.585-2.329
		s3.04,0,3.04,0s0.994,0.369,0.994,2.017s0,8.806,0,8.806s0.112,2.188-2.983,2.188v0.966h8.807v-0.938c0,0-2.926,0-2.94-2.116
		c-0.018-2.514,0.015-8.877,0.015-8.877s-0.142-2.045,1.222-2.045s1.363,0,1.363,0s2.982-0.142,3.011,1.932h1.591l-0.71-3.92
		H188.754z"/>
	<path d="M192.007,38.064c0,0,2.006,0,2.006,1.435v10.313c0,0-0.109,2.132-2.042,2.132v1.047h7.001v-1.047
		c0,0-2.006-0.116-2.006-2.132c0-2.404,0-10.313,0-10.313s0.146-1.396,2.006-1.435v-1.008h-6.965V38.064z"/>
	<path d="M208.086,53.046c4.632,0,8.387-3.567,8.387-7.968c0-4.4-3.755-7.967-8.387-7.967s-8.387,3.567-8.387,7.967
		C199.699,49.479,203.454,53.046,208.086,53.046z M208.086,38.733c3.162,0,5.726,2.89,5.726,6.455c0,3.564-2.563,6.454-5.726,6.454
		c-3.161,0-5.725-2.89-5.725-6.454C202.361,41.623,204.925,38.733,208.086,38.733z"/>
	<path d="M209.965,66.049c0,0,3.019-0.719,3.019-3.042s-2.372-3.042-2.779-3.042s-10.228,0-10.228,0v1.029
		c0,0,1.988,0.023,1.988,1.772s0,8.384,0,8.384s-0.167,1.82-1.964,1.82v0.982h9.964c0,0,4-0.192,4-3.977
		S209.965,66.049,209.965,66.049z M204.983,61.977c0,0,0-1.006,0.958-1.006s2.06,0,2.06,0s1.964,0.072,1.964,2.036
		c0,2.419-1.7,2.994-2.97,2.994s-1.27,0-1.27,0s-0.742-0.073-0.742-1.007S204.983,61.977,204.983,61.977z M208.576,72.994h-2.204
		c0,0-1.438-0.071-1.389-1.676c0.037-1.222,0-4.336,0-4.336h2.467c0,0,3.568,0.12,3.521,2.851
		C210.914,73.066,208.576,72.994,208.576,72.994z"/>
	<path d="M267.473,48.738h-2.135c0,0-1.382,3.188-3.215,3.188s-2.108,0-2.108,0s-2.186-0.327-2.186-2.336c0-2.008,0-9.893,0-9.893
		s-0.2-1.657,2.486-1.683V36.91h-7.81v1.105c0,0,2.135,0.025,2.135,1.783v9.869c0,0,0.177,2.26-2.135,2.26v1.08h13.887
		L267.473,48.738z"/>
</g>
</svg>
