<?xml version="1.0" encoding="utf-8"?>
<!-- Generator: Adobe Illustrator 16.0.4, SVG Export Plug-In . SVG Version: 6.00 Build 0)  -->
<!DOCTYPE svg PUBLIC "-//W3C//DTD SVG 1.1//EN" "http://www.w3.org/Graphics/SVG/1.1/DTD/svg11.dtd">
<svg version="1.1" id="Layer_1" xmlns="http://www.w3.org/2000/svg" xmlns:xlink="http://www.w3.org/1999/xlink" x="0px" y="0px"
	 width="269.986px" height="61.497px" viewBox="0 0 269.986 61.497" enable-background="new 0 0 269.986 61.497"
	 xml:space="preserve">
<g>
	<path d="M24.168,39.531c1.419,0.923-0.536,3.002-4.021,2.832c-3.487-0.17-8.587-3.479-10.532-9.06
		c-1.943-5.583-2.87,1.086-2.87,1.086C5.318,48.881,17.581,47.938,17.581,47.938s8.396,0.76,16.472-6.654
		c1.248-1.146,3.551-0.458,1.369,3.551c-1.669,3.068-7.36,5.49-13.175,4.427c-5.813-1.066-2.621,2.341-2.621,2.341
		c11.897,8.395,19.256-1.868,19.256-1.868s5.327-6.544,2.866-17.227c-0.38-1.65,1.63-3.234,3.997,0.671
		c1.81,2.986,1.152,8.493-2.695,12.981c-3.848,4.486,0.703,3.443,0.703,3.443c13.243-6.053,7.967-16.948,7.967-16.948
		S49.091,24.752,38.621,21.5l-0.142-0.068c-1.479-0.828-1.018-2.688,2.472-2.748s7.73,4.141,10.037,9.583
		c2.307,5.443,3.076-0.71,3.076-0.71c0.473-14.552-11.515-14.849-11.515-14.849s-7.83-0.402-15.765,7.041
		c-1.235,1.159-2.999-0.204-1.603-3.401c1.396-3.199,6.818-4.951,12.726-4.785c5.908,0.167,0.633-3.092,0.633-3.092
		c-12.689-6.134-18.129,3.938-18.129,3.938s-5.321,6.143-1.259,16.325c0.627,1.573-1.74,2.169-3.693-0.722
		C13.505,25.12,14.226,18.901,17.528,14c3.303-4.901-2.273-2.19-2.273-2.19C2.8,19.353,9.58,29.932,9.58,29.932
		s3.696,7.545,14.472,9.565L24.168,39.531z"/>
	<ellipse fill="#FFFFFF" cx="31.191" cy="30.339" rx="7.158" ry="7.454"/>
</g>
<polygon points="111.389,14.933 95.284,14.916 94.478,19.891 99.466,19.891 97.403,32.875 103.409,32.886 105.473,19.891 
	110.582,19.891 "/>
<polygon points="127.642,18.922 128.271,14.921 117.629,14.91 117.624,14.947 113.41,14.94 110.561,32.875 114.772,32.883 
	114.771,32.89 125.413,32.89 126.042,28.888 117.203,28.879 117.675,25.906 125.413,25.906 126.042,21.904 118.312,21.896 
	118.785,18.922 "/>
<polygon points="245.733,14.951 239.728,14.94 238.398,23.311 234.724,14.94 234.529,14.94 234.529,14.938 228.523,14.928 
	225.675,32.862 231.681,32.874 233.052,24.241 236.844,32.879 238.381,32.879 242.885,32.888 "/>
<polygon points="265.494,14.986 259.488,14.976 253.797,20.93 253.125,20.93 254.082,14.907 248.076,14.896 245.228,32.83 
	251.233,32.842 252.338,25.887 252.979,25.888 256.375,32.893 263.371,32.904 258.325,22.487 "/>
<path d="M90.387,32.857h4.995l-2.951-17.978h-1.069h0.054H86.42l-9.039,17.978h4.996l1.014-2.012h6.657L90.387,32.857z
	 M85.418,26.823l2.993-5.938l0.977,5.938H85.418z"/>
<path d="M161.329,32.908h4.994l-2.938-17.96h-1.069h0.055h-4.996l-9.051,17.96h4.996l1.014-2.012h6.657L161.329,32.908z
	 M156.36,26.873l2.992-5.938l0.977,5.938H156.36z"/>
<path d="M219.369,32.883h4.994l-2.925-18.004h-1.069h0.055h-4.996l-9.064,18.004h4.996l1.014-2.013h6.657L219.369,32.883z
	 M214.4,26.847l2.992-5.938l0.977,5.938H214.4z"/>
<path d="M78.368,21.877c0,0,1.57-6.968-8.025-6.968c0,0-6.825-0.286-9.938,5.94s0.486,10.766,0.486,10.766s2.398,4.456,11.537,0.286
	v1h3.941l1.028-9.024l-7.482,0.028l-0.514,2.97h1.971c0,0,0.028,2.056-3.056,2.056c-3.541,0-3.36-4.462-1.942-7.054
	c1.656-3.027,3.941-2.884,3.941-2.884s2.456-0.114,2.056,2.884H78.368z"/>
<polygon points="147.944,14.948 143.944,25.016 143.363,14.947 139.357,14.947 139.359,14.975 138.674,14.975 134.968,25.277 
	134.339,14.92 129.322,14.893 130.413,32.86 135.43,32.888 135.428,32.86 136.246,32.86 139.818,22.931 140.391,32.86 
	140.828,32.86 144.397,32.86 146.415,32.86 153.53,14.948 "/>
<path d="M206.803,27.877 M189.441,32.855"/>
<path d="M203.964,23.511c0,0,3.189-2.476,3.113-5.521c-0.073-2.943-4.719-3.041-4.719-3.041h-7.978h-0.006h-1.916l-4.086,17.914
	h5.229h0.008c1.934,0.006,4.366,0.036,6.486,0.036c4.329,0,6.916-4.739,6.664-7.005C206.518,23.706,203.964,23.511,203.964,23.511z
	 M196.784,18.908c0,0,4.181-0.367,4.618,0.873s-0.421,2.776-2.63,2.929h-2.819L196.784,18.908z M194.668,28.785
	c-0.051-0.007,0.752-3.522,0.752-3.522s5.114-0.947,5.99,0.884C202.286,27.979,198.716,29.307,194.668,28.785z"/>
<path d="M164.487,14.905"/>
<line x1="183.442" y1="14.933" x2="177.943" y2="14.933"/>
<polygon points="182.792,14.903 176.824,14.903 173.349,19.604 170.326,14.887 164.405,14.905 170.076,23.809 168.411,32.92 
	174.407,32.92 176.027,24.055 "/>
<g>
	<g>
		<path d="M114.157,42.062c0-1.349,0.422-2.44,1.266-3.274c0.845-0.835,1.869-1.252,3.073-1.252c1.021,0,1.854,0.308,2.497,0.922
			c0.643,0.613,0.964,1.437,0.964,2.469c0,0.736-0.162,1.42-0.486,2.049c-0.243,0.472-0.548,0.879-0.917,1.221
			c-0.369,0.343-0.764,0.606-1.186,0.792c-0.559,0.248-1.152,0.372-1.778,0.372c-0.656,0-1.253-0.145-1.792-0.434
			c-0.539-0.289-0.947-0.692-1.225-1.21C114.296,43.199,114.157,42.647,114.157,42.062z M115.236,42.114
			c0,0.443,0.1,0.852,0.299,1.223c0.2,0.372,0.497,0.663,0.892,0.872c0.395,0.21,0.811,0.315,1.247,0.315
			c0.421,0,0.822-0.092,1.202-0.276c0.38-0.184,0.72-0.44,1.021-0.769c0.3-0.329,0.537-0.733,0.71-1.213
			c0.173-0.48,0.26-0.952,0.26-1.417c0-0.754-0.229-1.354-0.685-1.801s-1.021-0.671-1.691-0.671c-0.857,0-1.614,0.338-2.271,1.014
			C115.564,40.067,115.236,40.976,115.236,42.114z"/>
	</g>
</g>
<g>
	<g>
		<path d="M123.916,44.894l1.777-6.992h5.536l-0.203,0.797h-4.397l-0.563,2.227h4.479l-0.204,0.797h-4.479l-0.807,3.172H123.916z"/>
	</g>
</g>
<g>
	<g>
		<path d="M139.22,42.56l1.004-0.088l-0.01,0.249c0,0.276,0.067,0.528,0.204,0.758c0.136,0.229,0.36,0.406,0.675,0.531
			c0.313,0.125,0.687,0.188,1.119,0.188c0.614,0,1.083-0.125,1.405-0.375s0.484-0.536,0.484-0.858c0-0.224-0.086-0.429-0.257-0.613
			c-0.175-0.183-0.65-0.429-1.429-0.741c-0.604-0.243-1.015-0.431-1.234-0.561c-0.346-0.211-0.601-0.44-0.764-0.689
			c-0.164-0.248-0.246-0.532-0.246-0.851c0-0.366,0.107-0.698,0.324-0.994c0.216-0.295,0.533-0.521,0.949-0.677
			c0.417-0.156,0.888-0.234,1.41-0.234c0.625,0,1.151,0.098,1.58,0.293c0.43,0.194,0.741,0.454,0.935,0.779s0.29,0.635,0.29,0.931
			c0,0.029-0.002,0.078-0.005,0.146l-0.989,0.073c0-0.201-0.019-0.359-0.058-0.473c-0.069-0.198-0.178-0.366-0.324-0.502
			c-0.146-0.137-0.348-0.246-0.604-0.329c-0.256-0.083-0.543-0.124-0.86-0.124c-0.559,0-0.992,0.116-1.303,0.351
			c-0.237,0.179-0.356,0.416-0.356,0.712c0,0.175,0.049,0.332,0.146,0.47s0.274,0.273,0.529,0.407
			c0.181,0.094,0.611,0.281,1.292,0.561c0.551,0.227,0.932,0.406,1.141,0.536c0.279,0.172,0.493,0.381,0.644,0.626
			s0.225,0.523,0.225,0.836c0,0.387-0.126,0.743-0.379,1.069s-0.603,0.579-1.049,0.758c-0.447,0.179-0.958,0.268-1.533,0.268
			c-0.869,0-1.578-0.176-2.127-0.528C139.499,44.11,139.223,43.476,139.22,42.56z"/>
	</g>
</g>
<g>
	<g>
		<path d="M157.507,44.866v-1.772h1.854v1.772H157.507z"/>
	</g>
</g>
<g>
	<g>
		<path d="M168.445,44.901l1.793-6.982h1.148l-1.588,6.191h4.459l-0.205,0.791H168.445z"/>
	</g>
</g>
<g>
	<g>
		<path d="M178.097,41.997c0-1.291,0.413-2.335,1.238-3.134c0.825-0.798,1.827-1.197,3.004-1.197c0.999,0,1.812,0.294,2.441,0.882
			c0.629,0.587,0.942,1.375,0.942,2.362c0,0.705-0.158,1.358-0.476,1.961c-0.236,0.45-0.535,0.84-0.896,1.167
			c-0.36,0.328-0.747,0.581-1.159,0.759c-0.546,0.236-1.126,0.355-1.738,0.355c-0.642,0-1.226-0.139-1.752-0.415
			s-0.926-0.662-1.197-1.158C178.232,43.084,178.097,42.557,178.097,41.997z M179.151,42.046c0,0.425,0.098,0.814,0.293,1.171
			c0.194,0.355,0.485,0.633,0.872,0.834c0.386,0.201,0.793,0.301,1.219,0.301c0.412,0,0.804-0.088,1.176-0.264
			c0.371-0.176,0.704-0.422,0.998-0.735c0.293-0.314,0.524-0.701,0.693-1.161c0.17-0.459,0.255-0.911,0.255-1.355
			c0-0.721-0.224-1.295-0.67-1.723s-0.998-0.643-1.653-0.643c-0.839,0-1.578,0.324-2.22,0.971S179.151,40.956,179.151,42.046z"/>
	</g>
</g>
<g>
	<g>
		<path d="M190.078,37.893h1.148l-1.102,4.408c-0.09,0.365-0.135,0.636-0.135,0.812c0,0.385,0.182,0.694,0.545,0.93
			c0.363,0.234,0.82,0.352,1.371,0.352c0.438,0,0.845-0.083,1.222-0.251s0.675-0.415,0.894-0.741s0.416-0.847,0.592-1.561
			l0.99-3.948h1.148l-1.049,4.207c-0.18,0.718-0.416,1.286-0.709,1.705s-0.699,0.755-1.219,1.008
			c-0.52,0.252-1.123,0.379-1.811,0.379c-0.648,0-1.21-0.09-1.685-0.27c-0.475-0.179-0.83-0.427-1.066-0.743
			s-0.354-0.675-0.354-1.076c0-0.251,0.08-0.683,0.24-1.296L190.078,37.893z"/>
	</g>
</g>
<g>
	<g>
		<path d="M198.713,44.887l1.799-6.982h1.143l-1.793,6.982H198.713z"/>
	</g>
</g>
<g>
	<g>
		<path d="M204.815,42.707l0.968-0.088l-0.01,0.25c0,0.277,0.065,0.531,0.196,0.761c0.132,0.23,0.348,0.408,0.65,0.534
			s0.662,0.188,1.079,0.188c0.591,0,1.042-0.126,1.354-0.377c0.311-0.252,0.466-0.539,0.466-0.862c0-0.225-0.082-0.431-0.247-0.616
			c-0.168-0.184-0.627-0.432-1.376-0.745c-0.581-0.244-0.978-0.432-1.189-0.562c-0.333-0.212-0.578-0.443-0.736-0.693
			c-0.157-0.249-0.236-0.534-0.236-0.854c0-0.368,0.104-0.701,0.312-0.998c0.208-0.298,0.513-0.524,0.915-0.681
			c0.401-0.157,0.854-0.235,1.358-0.235c0.602,0,1.108,0.098,1.521,0.294c0.414,0.195,0.714,0.457,0.9,0.783
			s0.279,0.639,0.279,0.936c0,0.029-0.001,0.078-0.005,0.146l-0.952,0.073c0-0.202-0.019-0.36-0.056-0.475
			c-0.067-0.199-0.172-0.367-0.312-0.504c-0.142-0.138-0.336-0.248-0.582-0.331c-0.247-0.083-0.523-0.125-0.83-0.125
			c-0.537,0-0.956,0.118-1.255,0.353c-0.229,0.18-0.343,0.418-0.343,0.715c0,0.177,0.047,0.334,0.142,0.473
			c0.094,0.139,0.264,0.275,0.509,0.409c0.175,0.095,0.59,0.282,1.245,0.562c0.531,0.229,0.897,0.408,1.099,0.539
			c0.27,0.173,0.476,0.383,0.62,0.629c0.145,0.247,0.217,0.526,0.217,0.84c0,0.389-0.122,0.747-0.365,1.075
			c-0.244,0.328-0.581,0.582-1.011,0.761c-0.431,0.18-0.923,0.27-1.477,0.27c-0.837,0-1.521-0.177-2.05-0.531
			S204.819,43.628,204.815,42.707z"/>
	</g>
</g>
<g>
	<g>
		<path d="M150.252,44.935l1.588-6.246h-2.818l0.205-0.803h6.762l-0.205,0.803h-2.795l-1.588,6.246H150.252z"/>
	</g>
</g>
</svg>
