<?xml version="1.0" encoding="utf-8"?>
<!-- Generator: Adobe Illustrator 16.0.4, SVG Export Plug-In . SVG Version: 6.00 Build 0)  -->
<!DOCTYPE svg PUBLIC "-//W3C//DTD SVG 1.1//EN" "http://www.w3.org/Graphics/SVG/1.1/DTD/svg11.dtd">
<svg version="1.1" id="Layer_1" xmlns="http://www.w3.org/2000/svg" xmlns:xlink="http://www.w3.org/1999/xlink" x="0px" y="0px"
	 width="178px" height="64px" viewBox="0 0 178 64" enable-background="new 0 0 178 64" xml:space="preserve">
<path d="M36.904,16.06l0.429,6.759h-0.429c-0.572-2.023-1.388-3.48-2.448-4.37c-1.061-0.889-2.333-1.334-3.817-1.334
	c-1.245,0-2.37,0.335-3.375,1.004c-1.005,0.669-1.796,1.737-2.372,3.204s-0.864,3.29-0.864,5.469c0,1.799,0.271,3.358,0.816,4.677
	c0.544,1.32,1.362,2.331,2.455,3.035s2.339,1.056,3.741,1.056c1.217,0,2.292-0.275,3.223-0.828c0.931-0.552,1.955-1.649,3.071-3.292
	l0.429,0.293c-0.94,1.769-2.038,3.064-3.292,3.885s-2.743,1.231-4.467,1.231c-3.108,0-5.514-1.222-7.22-3.665
	c-1.272-1.818-1.909-3.959-1.909-6.422c0-1.984,0.419-3.807,1.259-5.469c0.839-1.662,1.994-2.95,3.465-3.864
	c1.471-0.914,3.077-1.371,4.82-1.371c1.355,0,2.692,0.352,4.011,1.056c0.387,0.215,0.664,0.322,0.83,0.322
	c0.249,0,0.465-0.093,0.65-0.278c0.24-0.264,0.41-0.63,0.512-1.1H36.904z"/>
<path d="M47.485,35.854v0.543H39.45v-0.543h0.664c0.775,0,1.337-0.239,1.688-0.718c0.221-0.312,0.332-1.065,0.332-2.258V20.033
	c0-1.006-0.06-1.671-0.18-1.994c-0.092-0.245-0.282-0.455-0.567-0.631c-0.406-0.234-0.83-0.352-1.272-0.352H39.45v-0.542h8.036
	v0.542h-0.678c-0.765,0-1.323,0.239-1.673,0.718c-0.23,0.313-0.346,1.065-0.346,2.258v12.845c0,1.007,0.06,1.671,0.18,1.994
	c0.092,0.244,0.286,0.454,0.581,0.63c0.396,0.234,0.816,0.352,1.258,0.352H47.485z"/>
<path d="M64.567,16.515l0.208,4.663h-0.526c-0.102-0.821-0.24-1.408-0.415-1.76c-0.286-0.567-0.667-0.984-1.141-1.253
	c-0.475-0.269-1.1-0.403-1.875-0.403h-2.642v15.19c0,1.222,0.125,1.984,0.374,2.287c0.35,0.41,0.89,0.615,1.618,0.615h0.65v0.543
	h-7.953v-0.543h0.664c0.793,0,1.355-0.254,1.688-0.762c0.203-0.312,0.304-1.026,0.304-2.141v-15.19h-2.254
	c-0.876,0-1.499,0.068-1.867,0.205c-0.479,0.186-0.89,0.542-1.231,1.07c-0.341,0.528-0.544,1.242-0.608,2.141h-0.526l0.221-4.663
	H64.567z"/>
<path d="M78.979,16.515h6.542v0.542h-0.359c-0.24,0-0.59,0.112-1.051,0.337c-0.461,0.225-0.881,0.548-1.259,0.968
	c-0.378,0.42-0.844,1.105-1.397,2.053l-4.523,7.551v4.985c0,1.222,0.129,1.984,0.387,2.287c0.351,0.41,0.904,0.615,1.66,0.615h0.608
	v0.543h-7.967v-0.543h0.664c0.793,0,1.355-0.254,1.687-0.762c0.203-0.312,0.305-1.026,0.305-2.141v-4.707l-5.146-8.328
	c-0.608-0.977-1.021-1.588-1.238-1.833c-0.217-0.245-0.667-0.538-1.349-0.88c-0.185-0.098-0.452-0.146-0.802-0.146v-0.542h8.022
	v0.542H73.35c-0.434,0-0.833,0.107-1.196,0.322c-0.365,0.215-0.546,0.538-0.546,0.968c0,0.352,0.281,0.987,0.844,1.906l3.914,6.407
	l3.679-6.129c0.553-0.918,0.83-1.603,0.83-2.053c0-0.273-0.067-0.518-0.2-0.733c-0.134-0.215-0.325-0.383-0.574-0.506
	c-0.249-0.122-0.623-0.183-1.12-0.183V16.515z"/>
<path d="M99.021,26.25c1.301,0.293,2.273,0.763,2.919,1.408c0.895,0.899,1.342,1.999,1.342,3.299c0,0.988-0.296,1.933-0.886,2.837
	s-1.399,1.564-2.427,1.979c-1.028,0.415-2.599,0.623-4.71,0.623h-8.852v-0.543h0.706c0.784,0,1.346-0.264,1.688-0.791
	c0.212-0.343,0.318-1.07,0.318-2.185V20.033c0-1.231-0.134-2.008-0.401-2.331c-0.36-0.43-0.895-0.645-1.604-0.645h-0.706v-0.542
	h8.105c1.513,0,2.725,0.117,3.638,0.352c1.383,0.352,2.438,0.975,3.167,1.87s1.093,1.923,1.093,3.086
	c0,0.997-0.285,1.889-0.857,2.676C100.98,25.285,100.137,25.869,99.021,26.25z M91.773,25.458c0.341,0.068,0.73,0.12,1.169,0.154
	c0.438,0.035,0.92,0.051,1.445,0.051c1.346,0,2.358-0.154,3.036-0.462c0.678-0.308,1.196-0.779,1.556-1.415s0.539-1.33,0.539-2.082
	c0-1.163-0.447-2.156-1.342-2.977c-0.895-0.821-2.199-1.232-3.914-1.232c-0.922,0-1.752,0.108-2.489,0.323V25.458z M91.773,34.96
	c1.069,0.264,2.125,0.396,3.167,0.396c1.669,0,2.941-0.398,3.817-1.195c0.876-0.796,1.314-1.781,1.314-2.954
	c0-0.772-0.198-1.515-0.595-2.229s-1.042-1.276-1.937-1.687c-0.895-0.41-2.001-0.616-3.319-0.616c-0.572,0-1.061,0.01-1.467,0.029
	c-0.405,0.02-0.732,0.054-0.981,0.103V34.96z"/>
<path d="M114.531,29.723h-7.336l-1.286,3.093c-0.316,0.762-0.475,1.33-0.475,1.705c0,0.299,0.137,0.562,0.412,0.788
	c0.274,0.227,0.868,0.374,1.781,0.44v0.535h-5.967v-0.535c0.792-0.145,1.304-0.332,1.537-0.563c0.476-0.462,1.001-1.401,1.579-2.818
	l6.666-16.129h0.489l6.596,16.302c0.531,1.311,1.013,2.16,1.446,2.551s1.036,0.609,1.81,0.657v0.535h-7.477v-0.535
	c0.755-0.038,1.265-0.168,1.53-0.39s0.398-0.491,0.398-0.81c0-0.424-0.187-1.094-0.559-2.009L114.531,29.723z M114.141,28.653
	l-3.215-7.92l-3.298,7.92H114.141z"/>
<path d="M121.729,16.687h5.143l11.584,14.698V20.083c0-1.204-0.13-1.956-0.391-2.254c-0.345-0.405-0.89-0.607-1.635-0.607h-0.657
	v-0.535h6.596v0.535h-0.671c-0.801,0-1.369,0.25-1.704,0.751c-0.205,0.308-0.308,1.012-0.308,2.11v16.52h-0.503L126.689,20.82
	v12.067c0,1.205,0.125,1.956,0.377,2.255c0.354,0.404,0.898,0.606,1.635,0.606h0.671v0.535h-6.596v-0.535h0.656
	c0.811,0,1.384-0.25,1.72-0.751c0.204-0.309,0.307-1.012,0.307-2.11V19.259c-0.55-0.665-0.966-1.103-1.25-1.315
	s-0.701-0.41-1.251-0.593c-0.271-0.087-0.681-0.13-1.229-0.13V16.687z"/>
<path d="M151.326,25.416l6.986,7.183c1.146,1.186,2.125,1.992,2.936,2.421c0.81,0.429,1.62,0.672,2.431,0.729v0.535h-9.013v-0.535
	c0.54,0,0.929-0.094,1.166-0.281c0.238-0.188,0.356-0.397,0.356-0.629s-0.044-0.438-0.133-0.621
	c-0.088-0.184-0.379-0.525-0.873-1.026l-6.54-6.691v6.315c0,0.992,0.061,1.647,0.182,1.966c0.093,0.241,0.289,0.448,0.587,0.621
	c0.4,0.231,0.824,0.347,1.271,0.347h0.644v0.535h-8.077v-0.535h0.67c0.783,0,1.352-0.235,1.705-0.708
	c0.224-0.308,0.336-1.05,0.336-2.226v-12.66c0-0.992-0.062-1.652-0.182-1.98c-0.094-0.231-0.285-0.434-0.573-0.607
	c-0.41-0.231-0.839-0.347-1.286-0.347h-0.67v-0.535h8.077v0.535h-0.644c-0.438,0-0.861,0.111-1.271,0.332
	c-0.289,0.154-0.489,0.386-0.601,0.694c-0.112,0.309-0.168,0.944-0.168,1.908v5.998c0.187-0.183,0.824-0.794,1.915-1.835
	c2.767-2.621,4.438-4.369,5.017-5.246c0.251-0.385,0.377-0.723,0.377-1.012c0-0.221-0.098-0.417-0.293-0.585
	c-0.196-0.168-0.526-0.253-0.992-0.253h-0.434v-0.535h6.959v0.535c-0.41,0.009-0.782,0.067-1.118,0.173
	c-0.335,0.106-0.745,0.311-1.229,0.614c-0.484,0.303-1.081,0.792-1.788,1.467c-0.205,0.193-1.151,1.18-2.837,2.963L151.326,25.416z"
	/>
<rect x="20.583" y="39.483" width="144.121" height="7.816"/>
</svg>
